<svg enable-background="new 0 0 1016.7 710.1" viewBox="0 0 1016.7 710.1" xmlns="http://www.w3.org/2000/svg"><g fill="#fff"><path d="m558.3 85c6.4 4.4 12.6 8.1 20.2 7.7.8-.1 2.4.1 3.1 1.4.3.7 1.1 2-.5 3.8-6.1 6.4-15.8 11-26.2 12.9 3.3 7 6.9 13.3 13.6 16.8.8.4 2.1 1.3 2 2.7 0 .8 0 2.3-2.3 3.1-8.5 2.5-19.2 1.7-29.2-2-.6 7.7-.7 15 3.4 21.2.5.8 1.2 2.2.4 3.5-.4.6-1.3 2-3.6 1.6-8.7-2.2-17.4-8.1-24.2-16.3-4.5 6.3-8.1 12.5-7.7 20.1.1.9-.1 2.4-1.3 3.2-.7.3-2.2 1-4-.6-6.3-6.1-10.9-15.7-12.8-26.2-7 3.3-13.3 6.9-16.7 13.6-.4.8-1.4 2-2.8 2-.7 0-2.3-.3-3.1-2.2-2.4-8.6-1.5-19.2 2.1-29.2-7.7-.6-14.9-.7-21.3 3.4-.8.5-2.2 1.1-3.4.4-.6-.4-2-1.4-1.6-3.6 2.2-8.7 8.2-17.4 16.4-24.3-6.4-4.4-12.6-8.1-20.2-7.7-1 .1-2.4-.1-3.1-1.3-.4-.7-1-2.2.5-3.9 6.2-6.4 15.7-11 26.2-12.8-3.2-7-6.8-13.3-13.6-16.8-.8-.4-2.1-1.4-2-2.8 0-.7.1-2.3 2.3-3.1 8.5-2.4 19.2-1.6 29.2 2 .6-7.6.8-15-3.4-21.3-.5-.7-1.1-2.1-.4-3.3.4-.7 1.4-2 3.6-1.6 8.5 2.2 17.4 8.2 24.3 16.3 4.5-6.3 8.1-12.6 7.7-20.2-.1-.9.1-2.4 1.3-3.1.7-.4 2.1-1 3.9.5 6.4 6.1 10.9 15.7 12.8 26.2 7-3.2 13.3-6.9 16.8-13.6.4-.8 1.4-2.1 2.8-2 .7 0 2.3.1 3.1 2.3 2.4 8.5 1.6 19.2-2.1 29.2 7.7.7 15 .8 21.3-3.5.8-.4 2.2-1 3.4-.3.6.4 2 1.4 1.6 3.6-2.4 8.4-8.4 17.3-16.5 24.2"/><path d="m486 254.5c-13.4-6.4-15.3-15.3 5-15.1 116.3.8 166.2-130.8 164.3-231.7-.2-8.7 3.5-11.7 7.1-.5 5.8 18.1 9.7 37.6 11.2 58.1 7.6 105.1-50.1 195.5-128.6 201.3-20.6 1.6-40.4-3.2-59-12.1"/><path d="m364.7 14.7c-15.8 35.4-24.6 76.2-21.4 120.6 8.6 118.1 92.3 210.2 184.6 203.5 52.2-3.8 96.6-38 124-88.4 6.2-11.6 3.6-18.1-6.1-7.9-121.1 128-272.5-6-277.9-157.3-1.8-24.3-.6-48 2.8-70.5 1.6-10-2.9-7.2-6 0"/><path d="m74.9 530.7c-2.8 8.4-13.2 20.1-36.2 20.1-16.3 0-28.2-4.9-34.2-14.2-3.5-5.5-4.6-9.8-4.6-20.1v-74.1h21.9v70c0 6.6.6 10.5 1.8 12.7 2.5 4.7 7.5 7.4 14.6 7.4 9.4 0 15.3-4.6 16.2-12.4.3-2.3.3-3.8.3-9.5v-68.2h21.7v71.6c.2 10.2 0 12.1-1.5 16.7"/><path d="m136.8 488.3c-2-1.1-3.7-1.6-6-1.6-4.6 0-8.7 2.2-12.5 6.6v55.4h-20.6v-52.4c0-10.6-1.2-18.5-2.9-23l18.4-4.9c1.8 3.3 2.9 6.8 3.2 11.2 4.4-6 10.7-11.2 18.4-11.2 3 0 4.4.3 7.7 1.7z"/><path d="m201.7 551c-2.6-1.9-4.8-4.5-6.1-7.7-5.1 4.9-12.4 7.5-20.7 7.5-11 0-20.5-5.2-23.1-12.7-1.2-3.5-1.7-7.7-1.7-15.6v-50.2l20.2-3.9v50.4c0 7.1.6 10.7 1.7 12.9 1.1 2.1 4.1 3.7 7.2 3.7 5.1 0 11.2-3.7 12.7-7.5v-55.1l19.6-4.2v59.9c0 5.3 1.7 10.6 4.7 14.3z"/><path d="m274.4 495.7c0 7.2-4.5 11.2-12.6 11.2-7.2 0-12.1-3.3-12.1-11.2 0-7.3 4.5-11.6 12.3-11.6 7.8-.1 12.4 4.2 12.4 11.6m36.2-16.7-8.6-13c-4.8 4.3-10.6 6.7-16.2 6.7-2.6 0-5.3-.6-9.6-1.7-5.7-1.4-9.7-2-14.1-2-20.1 0-33.1 10.4-33.1 26.5 0 11.7 5.5 18.9 16.9 21.8-12.9 3.3-14.4 8.1-14.4 13.1 0 5.4 2.3 8.9 6 10.3 3.7 1.5 9.7 2.3 18.9 2.4l8.7.1c8.1.2 14.4 2.3 14.4 9.4 0 3.2-2 6.1-5 8-3.2 2-7.7 2.6-12.9 2.6-9.5 0-14.7-3.3-14.7-9.6 0-2.1.1-3.2.9-5h-19c-.8 1.5-1.8 3.6-1.8 8 0 5.3 2.1 9.9 6.4 13.9 7 6.6 18.5 8.4 29.7 8.4 12.3 0 24-2.8 30.9-10.1 4.3-4.6 6.3-9.6 6.3-16.3 0-7-2.1-12.4-6.7-16.7-5.5-5.1-11.8-6.9-23.7-7.1l-11-.1c-2.2 0-3.4-.8-3.4-1.8 0-2.1 2.9-4 8.1-6.5 1.5.1 2.1.1 3 .1 16.7 0 29-9.8 29-23.2 0-5.2-1.5-9.2-4.6-12.9 1.2.1 3.4.4 5.4.4 5.5.1 9.8-1.6 14.2-5.7"/><path d="m368.6 551c-2.6-1.9-4.8-4.5-6.1-7.7-5.1 4.9-12.4 7.5-20.7 7.5-11 0-20.5-5.2-23.2-12.7-1.2-3.5-1.7-7.7-1.7-15.6v-50.2l20.2-3.9v50.4c0 7.1.6 10.7 1.7 12.9 1.1 2.1 4.1 3.7 7.2 3.7 5 0 11.2-3.7 12.7-7.5v-55.1l19.6-4.2v59.9c0 5.3 1.7 10.6 4.8 14.3z"/><path d="m436.4 514.5-.3 16.8c-3.1 3.4-6.9 5.3-10.7 5.3-5.2 0-9-4.1-9-10.2 0-9.4 4.9-11.9 19.1-11.9zm27.4 25.7c-6.9-5.2-7.5-8.9-7.3-17.4l.5-26.4c.1-8.4-.3-10.9-1.4-14.1-3.1-8.7-12.1-13.6-25.3-13.6-7.2 0-13.8 1.4-21.4 4.6-5.5 2.3-8.6 3.8-12.7 6.4l8.7 14.7c8.4-5.6 16.1-8.9 22.7-8.9 7.5 0 9.2 2.9 9.2 11.7v3.2c-1.7-.1-3.1-.1-4.6-.1-25 0-37.7 8.6-37.7 26.9 0 15.6 9.5 24.5 27 24.5 6.4 0 11.9-1.5 15.8-4.3 1.5-1.1 3.2-2.6 4.7-4.1 2 4 6.3 7.5 11 9.5z"/><path d="m515.1 550.1c-5.4 15.2-9.3 21.7-15 25.9-5.2 3.8-11.9 6.2-19 7.2l-7-13.5c4.4-1.2 9.6-3.1 12.7-5.2 2.3-1.7 4.1-3.8 5.8-6.4 2-3.2 2.6-4.6 4.4-9.2h-5.2c-2.4-7.3-6.6-19.6-7.3-22l-18.5-55.3 21-2.5 13.6 45.8c1.4 4.7 4.1 16.2 4.1 16.2s1.5-8.7 2.4-12.5c.6-2.6 1.8-7.2 3.1-10.9l11.8-37.3h21.6z"/><path d="m619.5 548.8h-15.5l-17.3-58.3c-3.9-12.9-6.7-26-6.9-27.7-.2 2.2-2.3 16.7-4.8 29.1l-11.5 56.9h-15l22.4-105.4h16.9l18.4 60.8c3.2 10.7 4.9 22.4 5.1 24.2.3-2 2.7-18.2 5.3-31.4l10.8-53.6h14.4z"/><path d="m699.1 483.1-8.3 38.8c-4.6 9.5-13.2 16.8-20.8 16.8-6.4 0-9.8-3.5-9.8-12.8 0-11 3.1-25.9 10.4-34.6 6.3-7.4 11.9-10 20.2-10 3.2 0 6.3.7 8.3 1.8m16-7c-6.1-4.2-14.3-6.1-22.7-6.1-12.1 0-22.5 4.6-30.7 12.7-10.1 10.1-16 27.4-16 43.3 0 16.7 8.4 24.4 19 24.4 11 0 19.8-5.3 25.1-13.7-.3 6.5 1.4 10.7 5.7 14.9l11.5-8.7c-3.8-4-5.3-7.7-2.8-19l6.6-31c1-5.4 3-12.9 4.3-16.8"/><path d="m768.8 482.4h-15.8l-9.2 43.3c-.6 3.2-1.1 5.8-1.1 8 0 5.2 2.3 7.1 7.5 7.1 3.1 0 5.5-.6 8-1.6v8.8c-4.8 2.1-9.7 3.2-15 3.2-9.6 0-14.7-4.8-14.7-12.8 0-3.6.2-6.7 1.1-10.8l9.5-45.2h-9.4l2-10.4h9.5c1.5-6.4 3.4-13.2 5.2-19l15.3-3.3c-2.1 6-4.9 15.4-6.3 22.3h18.7z"/><path d="m832.2 526.2c-1.8 8.9-1.5 13.5 1.8 18.2l-11.5 7.5c-3.7-3.8-5.6-8.3-5.2-15.2-8.6 9.8-18.1 14.6-27.4 14.6-10.5 0-16.9-5-16.9-15.5 0-3.5.5-7.8 1.2-11.5l11-51.4 14.4-2.6-10.7 51c-.9 4.1-1.4 7.6-1.4 10.1 0 6 2.1 8.3 6.9 8.3 7.2 0 17.6-6.3 24.6-17.4l10.5-49 14.4-2.6z"/><path d="m903.3 485.4c-1.5-.6-2.9-.9-5.2-.9-6.3 0-13.3 5.2-20.4 15.6l-10.3 48.7h-14l11.1-51.8c2.3-11 2.4-16.2.8-21.6l13.2-5.8c1.7 4.2 2.3 9.8 1 16.9 7.2-10.1 16.7-16.4 23.9-16.4 2.9 0 4.3.3 6.1 1z"/><path d="m956.9 483.1-8.3 38.8c-4.6 9.5-13.1 16.8-20.8 16.8-6.4 0-9.8-3.5-9.8-12.8 0-11 3-25.9 10.4-34.6 6.3-7.4 12-10 20.2-10 3.3 0 6.3.7 8.3 1.8m15.9-7c-6.2-4.2-14.3-6.1-22.7-6.1-12.1 0-22.6 4.6-30.6 12.7-10.1 10.1-16.1 27.4-16.1 43.3 0 16.7 8.4 24.4 19 24.4 11.1 0 19.8-5.3 25.1-13.7-.3 6.5 1.4 10.7 5.7 14.9l11.5-8.7c-3.8-4-5.2-7.7-2.7-19l6.6-31c1-5.4 3-12.9 4.2-16.8"/><path d="m1014.6 462.6-14.1 65.5c-.9 4-1.2 6.4-1.2 8 0 2.6 1.2 3.8 3.5 3.8.8 0 2 0 2.8-.3l.8 9c-3.4 1.4-6.7 1.9-10.3 1.9-7.5 0-11.6-3.8-11.6-10.4 0-2.2.5-5.2 1.2-8.6l14.3-67.7c2.1-10.3 2.4-17.9.9-22.9l15-5.4c1.6 5.7.7 17.7-1.3 27.1"/><path d="m55.2 692.3h-6.7l-3.3-41.1c-.2-2-.3-5.2-.4-9.6-.5 2.6-1.3 5.6-2.2 8.8l-12 41.8h-5.7l-11.1-39.8c-1.3-4.7-2.3-8.3-2.8-10.9-.2 3.8-.4 7.4-.7 10.9l-3.1 39.9h-6.4l4.9-56.1h9.7l10.3 36.6c.9 3.3 1.7 6.6 2.2 9.8.8-4.1 1.5-7.2 2.1-9.2l10.5-37.3h9.9z"/><path d="m56 693h-8.1l-.1-.7-3.3-41.1c-.1-1.1-.2-2.5-.2-4.2-.3 1.2-.6 2.4-1 3.6l-12.2 42.4h-6.8l-11.2-40.3c-.7-2.3-1.2-4.4-1.7-6.2-.1 2.1-.3 4.1-.4 6l-3.1 40.5h-7.9l5-57.5h10.9l10.4 37.1c.6 2.1 1.1 4.3 1.6 6.4.5-2.5 1-4.4 1.4-5.7l10.7-37.8h11l.1.6zm-6.8-1.4h5.3l-4.7-54.7h-4.3l.1 4.7c.1 4.3.2 7.6.4 9.5zm-23.8 0h4.7l11.9-41.3c.9-3.3 1.7-6.2 2.2-8.8l.9-4.5h-4l-10.4 36.8c-.5 1.9-1.2 4.9-2.1 9.1l-.7 3.7-.6-3.7c-.5-3.2-1.3-6.5-2.2-9.7l-10.1-36.1h-4.1l.9 4.5c.5 2.6 1.5 6.3 2.8 10.9zm-23.8 0h5l3.1-39.2c.3-3.4.5-7.1.7-10.9l.2-4.6h-4.3z"/><path d="m69.9 639c0 1.4-.5 2.6-1.4 3.6s-2.1 1.4-3.6 1.4c-1.4 0-2.5-.5-3.5-1.4-1-1-1.5-2.1-1.5-3.5s.5-2.6 1.4-3.6c1-1 2.1-1.5 3.6-1.5 1.4 0 2.6.5 3.6 1.4 1 1 1.4 2.2 1.4 3.6zm-1.6 53.3h-6.8v-40.5l6.8-1.1z"/><path d="m69 693h-8.2v-41.9l8.2-1.3zm-6.8-1.4h5.4v-40.1l-5.4.8zm2.7-46.9c-1.6 0-2.9-.5-4-1.6s-1.7-2.4-1.7-4 .5-3 1.6-4.1 2.5-1.7 4.1-1.7 3 .6 4.1 1.6c1.1 1.1 1.6 2.4 1.6 4.1s-.5 3-1.6 4.1c-1.1 1-2.4 1.6-4.1 1.6zm0-10c-1.2 0-2.2.4-3 1.3s-1.2 1.9-1.2 3.1.4 2.1 1.3 3c.9.8 1.8 1.2 3 1.2s2.2-.4 3.1-1.2c.8-.8 1.2-1.8 1.2-3.1s-.4-2.2-1.2-3.1c-.9-.8-1.9-1.2-3.2-1.2z"/><path d="m108.8 692.3h-6.5v-27.7c0-2.8-.3-4.8-1-6-.9-1.7-2.5-2.5-5-2.5-1.8 0-3.9.6-6.2 1.9-2.1 1.1-3.8 2.4-5.2 3.9v30.5h-6.1v-30.4c0-4.1-.5-7.4-1.6-9.6l6.2-1.7c1 2.1 1.5 4.3 1.5 6.4 4.2-4.3 8.5-6.4 12.8-6.4 2.1 0 4.1.5 6 1.6 1.8 1.1 3.2 2.5 4 4.4.7 1.5 1 3.1 1 4.8v30.8z"/><path d="m109.5 693h-7.9v-28.4c0-2.7-.3-4.6-.9-5.7-.8-1.5-2.2-2.2-4.4-2.2-1.7 0-3.6.6-5.8 1.8-1.9 1-3.5 2.2-4.8 3.5v31h-7.6v-31c0-4-.5-7.2-1.5-9.4l-.3-.8 7.6-2.1.2.5c.8 1.7 1.3 3.4 1.5 5.1 4-3.7 8.1-5.5 12.2-5.5 2.2 0 4.4.6 6.3 1.7 2 1.1 3.4 2.7 4.3 4.7.7 1.6 1 3.3 1 5v31.8zm-6.5-1.4h5v-30.2c0-1.6-.3-3.1-.9-4.5-.8-1.7-2-3.1-3.7-4.1s-3.6-1.5-5.6-1.5c-4.1 0-8.3 2.1-12.3 6.2l-1.2 1.2v-1.7c0-1.8-.4-3.7-1.2-5.5l-4.8 1.3c.9 2.3 1.3 5.4 1.3 9.2v29.6h4.7v-30l.2-.2c1.4-1.5 3.2-2.9 5.4-4 2.4-1.3 4.6-2 6.5-2 2.7 0 4.6 1 5.6 2.9.7 1.3 1.1 3.4 1.1 6.3v27z"/><path d="m127.2 639c0 1.4-.5 2.6-1.4 3.6s-2.1 1.4-3.6 1.4c-1.4 0-2.5-.5-3.5-1.4s-1.5-2.1-1.5-3.5.5-2.6 1.4-3.6c1-1 2.1-1.5 3.6-1.5 1.4 0 2.6.5 3.6 1.4.9 1 1.4 2.2 1.4 3.6zm-1.6 53.3h-6.8v-40.5l6.8-1.1z"/><path d="m126.3 693h-8.2v-41.9l8.2-1.3zm-6.8-1.4h5.4v-40.1l-5.4.8zm2.7-46.9c-1.6 0-2.9-.5-4-1.6s-1.7-2.4-1.7-4 .5-3 1.6-4.1 2.5-1.7 4.1-1.7 3 .6 4.1 1.6c1.1 1.1 1.6 2.4 1.6 4.1s-.5 3-1.6 4.1c-1.1 1-2.5 1.6-4.1 1.6zm0-10c-1.2 0-2.2.4-3 1.3s-1.2 1.9-1.2 3.1.4 2.1 1.3 3c.9.8 1.8 1.2 3 1.2s2.2-.4 3.1-1.2c.8-.8 1.2-1.8 1.2-3.1s-.4-2.2-1.2-3.1c-.9-.8-1.9-1.2-3.2-1.2z"/><path d="m161.8 680.1c0 4.2-1.6 7.5-4.7 10-2.8 2.2-6.3 3.4-10.7 3.4-5.5 0-10.5-1.4-15-4.1l2.5-4.7c4.2 2.6 8.5 3.8 12.9 3.8 2.4 0 4.4-.6 5.9-1.8 1.6-1.2 2.3-2.9 2.3-5.2 0-3.4-2.2-5.7-6.7-6.7l-5.1-1.2c-6.9-1.5-10.3-5.2-10.3-11.1 0-3.9 1.5-7 4.4-9.3 2.7-2.1 6.1-3.2 10.1-3.2 4.5 0 8.6 1.1 12.4 3.3l-2.4 4.7c-4.1-2-7.5-2.9-10.2-2.9-2.2 0-4 .5-5.4 1.6-1.5 1.3-2.3 2.9-2.3 5.1 0 3.1 2 5.1 5.9 5.9l5.4 1.1c7.4 1.5 11 5.3 11 11.3z"/><path d="m146.4 694.1c-5.6 0-10.8-1.4-15.3-4.2l-.6-.3 3.1-6 .7.4c4.1 2.5 8.3 3.7 12.5 3.7 2.2 0 4.1-.6 5.5-1.6 1.4-1.1 2.1-2.6 2.1-4.7 0-3.1-2-5-6.2-6l-5.1-1.2c-7.2-1.6-10.9-5.6-10.9-11.8 0-4.1 1.6-7.4 4.7-9.9 2.8-2.2 6.4-3.3 10.5-3.3 4.6 0 8.9 1.1 12.8 3.4l.6.3-3 6-.6-.3c-4-1.9-7.3-2.9-9.9-2.9-2 0-3.7.5-5 1.5-1.4 1.1-2 2.6-2 4.5 0 2.8 1.7 4.4 5.3 5.2l5.4 1.1c7.6 1.6 11.4 5.7 11.4 12.1 0 4.4-1.7 7.9-4.9 10.5-2.8 2.4-6.6 3.5-11.1 3.5zm-14-5c4.2 2.4 8.9 3.6 14 3.6 4.2 0 7.6-1.1 10.3-3.2 3-2.3 4.4-5.4 4.4-9.4 0-5.7-3.4-9.2-10.3-10.7l-5.4-1.1c-4.3-.9-6.4-3.1-6.4-6.6 0-2.3.9-4.2 2.6-5.6 3.3-2.6 8.4-2.4 15.7.9l1.8-3.5c-3.5-1.9-7.4-2.9-11.5-2.9-3.8 0-7 1-9.6 3-2.8 2.2-4.1 5.1-4.1 8.8 0 5.6 3.2 9 9.7 10.4l5.1 1.2c4.8 1.1 7.3 3.6 7.3 7.4 0 2.5-.9 4.5-2.6 5.8s-3.8 1.9-6.4 1.9c-4.3 0-8.5-1.2-12.6-3.6z"/><path d="m186.3 651.5-2 5h-8.6v26.2c0 2.1.3 3.6 1 4.5.8 1 2.2 1.6 4.3 1.6 1.6 0 3-.3 4.1-.8l.9 4.1c-2.1 1.1-4.5 1.6-7.2 1.6-6.2 0-9.2-3.1-9.2-9.2v-27.9h-5.3v-5h5.3v-.6c0-.7.2-3.5.6-8.5l.1-1.1 6.6-1.5c-.5 4.4-.8 8.2-.8 11.5h10.2z"/><path d="m178.8 694.3c-6.5 0-9.9-3.4-9.9-9.9v-27.2h-5.3v-6.4h5.3c0-1 .2-3.6.6-8.3l.1-1.6 8.1-1.8-.1 1c-.5 4-.8 7.6-.8 10.7h10.6l-2.5 6.4h-8.4v25.4c0 2 .3 3.3.8 4.1.6.8 1.9 1.3 3.7 1.3 1.5 0 2.8-.2 3.8-.7l.8-.4 1.2 5.5-.5.2c-2.1 1.1-4.7 1.7-7.5 1.7zm-13.8-38.5h5.3v28.6c0 5.7 2.8 8.5 8.5 8.5 2.4 0 4.5-.4 6.4-1.3l-.6-2.7c-1 .4-2.2.5-3.6.5-2.3 0-3.9-.6-4.9-1.8-.8-1-1.1-2.6-1.1-4.9v-26.9h8.9l1.4-3.6h-10v-.7c0-3.1.2-6.7.7-10.6l-5.1 1.1v.5c-.4 5-.6 7.8-.6 8.4v1.2h-5.3z"/><path d="m221.7 672.9h-25.4v1c0 4.1.6 7 1.9 9 2.2 3.3 5.6 5 10.1 5 3.9 0 7.2-1.3 10-3.8l2.5 4.1c-3.7 3.4-8.3 5.1-13.7 5.1-6 0-10.7-2.1-13.8-6.5-2.8-3.9-4.3-8.9-4.3-15.2 0-5.7 1.4-10.5 4.2-14.5 3.2-4.4 7.5-6.6 12.9-6.6 4.5 0 8.2 1.5 11 4.5 2 2.1 3.4 4.8 4 8 .4 2.1.7 5.1.7 9.1v.8zm-6.8-4.7c0-3.9-.6-6.8-1.7-8.7-1.5-2.6-4-3.9-7.5-3.9-5.9 0-9.1 4.2-9.4 12.7h18.6z"/><path d="m207 693.9c-6.3 0-11.1-2.3-14.4-6.7-2.9-4-4.4-9.2-4.4-15.6 0-5.8 1.4-10.9 4.3-14.9 3.3-4.6 7.8-6.9 13.5-6.9 4.7 0 8.6 1.6 11.5 4.7 2.1 2.2 3.5 5 4.2 8.3.4 2.1.7 5.2.7 9.3v1.6h-25.4v.3c0 3.9.6 6.8 1.8 8.6 2.1 3.2 5.2 4.7 9.5 4.7 3.7 0 6.9-1.2 9.5-3.7l.6-.6 3.2 5.3-.4.4c-3.8 3.4-8.6 5.2-14.2 5.2zm-1-42.8c-5.3 0-9.3 2.1-12.3 6.3-2.7 3.8-4 8.5-4 14.1 0 6.1 1.4 11.1 4.1 14.8 3 4.2 7.4 6.2 13.2 6.2 5 0 9.3-1.5 12.8-4.5l-1.7-2.9c-2.8 2.3-6.1 3.5-9.8 3.5-4.8 0-8.4-1.8-10.7-5.3-1.3-2-2-5.1-2-9.3v-1.7h25.4v-.3c0-3.9-.2-7-.6-9-.6-3.1-1.9-5.6-3.8-7.6-2.8-2.9-6.2-4.3-10.6-4.3zm9.6 17.8h-20.1v-.7c.3-8.9 3.7-13.4 10.1-13.4 3.8 0 6.5 1.4 8.1 4.3 1.1 2.1 1.8 5.1 1.8 9.1zm-18.6-1.4h17.2c-.1-3.4-.6-6-1.6-7.7-1.3-2.4-3.6-3.6-6.9-3.6-5.4 0-8.2 3.7-8.7 11.3z"/><path d="m249.4 650.9-2.6 6.8c-.7-.1-1.3-.2-1.8-.2-1.6 0-3.3.5-4.9 1.4-1.6 1-2.8 2.1-3.6 3.5-.5.9-.7 2.4-.7 4.4v25.4h-6.4v-31.1c0-3.8-.5-6.8-1.5-9l6.4-1.7c.9 2 1.4 4 1.4 6.1v.6c3.2-4.4 7-6.6 11.4-6.6.8 0 1.5.1 2.3.4z"/><path d="m236.6 693h-7.8v-31.8c0-3.6-.5-6.6-1.4-8.7l-.3-.8 7.8-2.1.2.5c.8 1.7 1.2 3.3 1.4 5 3.1-3.6 6.7-5.4 10.7-5.4.7 0 1.5.1 2.4.4l.7.2-3.1 8-.6-.1c-.7-.1-1.2-.2-1.7-.2-1.5 0-3 .4-4.5 1.3s-2.6 2-3.3 3.3c-.4.8-.7 2.2-.7 4.1v26.3zm-6.4-1.4h5v-24.7c0-2.1.3-3.7.8-4.7.8-1.5 2.1-2.8 3.8-3.8s3.5-1.5 5.2-1.5c.4 0 .8 0 1.3.1l2.1-5.5c-.5-.1-.9-.2-1.3-.2-4.1 0-7.8 2.1-10.8 6.3l-1.3 1.8v-2.8c0-1.7-.4-3.5-1.1-5.2l-5.1 1.4c.8 2.2 1.2 5.1 1.2 8.5v30.3z"/><path d="m260.3 639c0 1.4-.5 2.6-1.4 3.6-1 1-2.1 1.4-3.6 1.4-1.4 0-2.5-.5-3.5-1.4-1-1-1.5-2.1-1.5-3.5s.5-2.6 1.4-3.6c1-1 2.1-1.5 3.6-1.5 1.4 0 2.6.5 3.6 1.4.9 1 1.4 2.2 1.4 3.6zm-1.6 53.3h-6.8v-40.5l6.8-1.1z"/><path d="m259.4 693h-8.2v-41.9l8.2-1.3zm-6.8-1.4h5.4v-40.1l-5.4.8zm2.7-46.9c-1.6 0-2.9-.5-4-1.6s-1.7-2.4-1.7-4 .5-3 1.6-4.1 2.5-1.7 4.1-1.7 3 .6 4.1 1.6c1.1 1.1 1.6 2.4 1.6 4.1s-.5 3-1.6 4.1c-1.1 1-2.5 1.6-4.1 1.6zm0-10c-1.2 0-2.2.4-3 1.3s-1.2 1.9-1.2 3.1.4 2.1 1.3 3c.9.8 1.8 1.2 3 1.2s2.2-.4 3.1-1.2c.8-.8 1.2-1.8 1.2-3.1s-.4-2.2-1.2-3.1c-1-.8-2-1.2-3.2-1.2z"/><path d="m302.1 672.9c0 7.5-2.1 13.1-6.4 16.8-3 2.6-6.7 3.9-11.1 3.9-5.9 0-10.4-2.2-13.5-6.6-2.7-3.9-4.1-8.9-4.1-15 0-6 1.3-11 4-14.8 3.1-4.4 7.5-6.5 13.3-6.5 6.1 0 10.7 2.3 13.8 6.9 2.6 3.8 4 8.9 4 15.3zm-7.3.5c0-5.1-.5-9-1.6-11.5-1.6-4-4.6-6-9-6-4.1 0-6.9 1.6-8.5 4.8-1.2 2.3-1.8 5.7-1.8 10.2 0 5.2.5 9 1.6 11.6 1.7 3.9 4.7 5.8 9.2 5.8 6.7.1 10.1-4.9 10.1-14.9z"/><path d="m284.6 694.4c-6.1 0-10.8-2.3-14.1-6.9-2.8-4-4.2-9.2-4.2-15.5 0-6.2 1.4-11.3 4.1-15.2 3.2-4.5 7.9-6.8 13.9-6.8 6.3 0 11.2 2.4 14.4 7.2 2.7 4 4 9.3 4 15.8 0 7.7-2.2 13.5-6.6 17.4-3.1 2.6-7 4-11.5 4zm-.3-43c-5.6 0-9.8 2-12.7 6.2-2.6 3.7-3.9 8.5-3.9 14.4 0 6 1.3 10.9 4 14.6 3 4.3 7.2 6.3 12.9 6.3 4.2 0 7.8-1.3 10.7-3.7 4.1-3.5 6.1-9 6.1-16.3 0-6.2-1.3-11.2-3.8-15-3-4.4-7.4-6.5-13.3-6.5zm.4 37.7c-4.7 0-8-2.1-9.8-6.2-1.1-2.7-1.7-6.6-1.7-11.9 0-4.6.6-8.2 1.9-10.6 1.7-3.4 4.8-5.2 9.1-5.2 4.7 0 7.9 2.2 9.6 6.4 1.1 2.6 1.6 6.6 1.6 11.8.1 10.4-3.5 15.7-10.7 15.7zm-.5-32.5c-3.8 0-6.4 1.4-7.9 4.4-1.2 2.2-1.7 5.5-1.7 9.9 0 5.1.5 8.9 1.6 11.3 1.6 3.6 4.4 5.4 8.5 5.4 6.3 0 9.3-4.7 9.3-14.2 0-5-.5-8.8-1.5-11.3-1.5-3.7-4.2-5.5-8.3-5.5z"/><path d="m367.1 692.3h-6.5c-.4-1.1-.7-2.5-.9-4.2-1 1.1-2 2-2.8 2.5-2.2 1.5-4.9 2.2-8 2.2-5.7 0-10-2.1-12.8-6.2-2.5-3.6-3.8-8.4-3.8-14.4 0-8.7 2.8-15 8.4-18.8 2.5-1.7 5.1-2.6 7.8-2.6 4.7 0 8.4 1.8 11 5.3 0-2.4 0-4.5 0-6.3v-17.1l6.5 1.1v45.4c0 4.7.1 8 .4 9.9.1 1.2.4 2.3.7 3.2zm-7.7-10.5v-21.5c-2-2.8-5.3-4.2-9.9-4.2-6.8 0-10.3 5.3-10.3 15.9 0 10.2 3.3 15.3 9.8 15.3 5 .1 8.5-1.8 10.4-5.5z"/><path d="m348.9 693.6c-6 0-10.5-2.2-13.4-6.5-2.6-3.7-3.9-8.6-3.9-14.8 0-8.9 2.9-15.4 8.7-19.4 2.6-1.8 5.4-2.7 8.2-2.7 4.2 0 7.6 1.4 10.3 4.1v-22.3l7.9 1.3v46c0 4.7.1 8 .4 9.8.2 1.2.5 2.3.8 3.1l.4 1h-8.1l-.2-.5c-.3-.8-.5-1.8-.7-2.9-.7.7-1.3 1.2-1.9 1.6-2.4 1.4-5.2 2.2-8.5 2.2zm-.4-42.1c-2.5 0-5 .8-7.4 2.5-5.3 3.7-8.1 9.8-8.1 18.3 0 5.8 1.2 10.5 3.6 14 2.7 4 6.7 5.9 12.3 5.9 3 0 5.6-.7 7.6-2.1.8-.5 1.7-1.3 2.6-2.4l1-1.1.2 1.5c.2 1.4.4 2.6.7 3.5h5c-.2-.7-.4-1.5-.5-2.4-.3-1.9-.4-5.2-.4-10v-44.8l-5-.8v24.8l-1.3-1.7c-2.4-3.5-5.8-5.2-10.3-5.2zm.6 36.6c-7 0-10.6-5.4-10.6-16 0-11 3.7-16.6 11-16.6 4.8 0 8.3 1.5 10.5 4.5l.1.2-.1 22c-2 3.9-5.7 5.9-10.9 5.9zm.4-31.2c-6.4 0-9.5 5-9.5 15.2 0 9.8 3 14.6 9.1 14.6 4.6 0 7.8-1.6 9.6-5v-21c-1.9-2.6-4.9-3.8-9.2-3.8z"/><path d="m405.9 672.9h-25.4v1c0 4.1.6 7 1.9 9 2.2 3.3 5.6 5 10.1 5 3.9 0 7.2-1.3 10-3.8l2.5 4.1c-3.7 3.4-8.3 5.1-13.7 5.1-6 0-10.7-2.1-13.8-6.5-2.8-3.9-4.3-8.9-4.3-15.2 0-5.7 1.4-10.5 4.2-14.5 3.2-4.4 7.5-6.6 12.9-6.6 4.5 0 8.2 1.5 11 4.5 2 2.1 3.4 4.8 4 8 .4 2.1.7 5.1.7 9.1v.8zm-6.7-4.7c0-3.9-.6-6.8-1.7-8.7-1.5-2.6-4-3.9-7.5-3.9-5.9 0-9.1 4.2-9.4 12.7h18.6z"/><path d="m391.2 693.9c-6.3 0-11.1-2.3-14.4-6.7-2.9-4-4.4-9.2-4.4-15.6 0-5.8 1.4-10.9 4.3-14.9 3.3-4.6 7.8-6.9 13.5-6.9 4.7 0 8.6 1.6 11.5 4.7 2.1 2.2 3.5 5 4.2 8.3.4 2.1.7 5.2.7 9.3v1.6h-25.4v.3c0 3.9.6 6.8 1.8 8.6 2.1 3.2 5.2 4.7 9.5 4.7 3.7 0 6.9-1.2 9.5-3.7l.6-.6 3.2 5.3-.4.4c-3.8 3.4-8.6 5.2-14.2 5.2zm-1-42.8c-5.3 0-9.3 2.1-12.3 6.3-2.7 3.8-4 8.5-4 14.1 0 6.1 1.4 11.1 4.1 14.8 3 4.2 7.4 6.2 13.2 6.2 5 0 9.3-1.5 12.8-4.5l-1.7-2.9c-2.8 2.3-6.1 3.5-9.8 3.5-4.8 0-8.4-1.8-10.7-5.3-1.3-2-2-5.1-2-9.3v-1.7h25.4v-.3c0-3.9-.2-7-.6-9-.6-3.1-1.9-5.6-3.8-7.6-2.8-2.9-6.2-4.3-10.6-4.3zm9.7 17.8h-20.1v-.7c.3-8.9 3.7-13.4 10.1-13.4 3.8 0 6.5 1.4 8.1 4.3 1.1 2.1 1.8 5.1 1.8 9.1zm-18.6-1.4h17.2c-.1-3.4-.6-6-1.6-7.7-1.3-2.4-3.6-3.6-6.9-3.6-5.4 0-8.3 3.7-8.7 11.3z"/><path d="m469.4 636.2-.4 5.6h-15.2v50.4h-6.5v-50.4h-15v-5.6z"/><path d="m454.5 693h-7.9v-50.4h-15v-7.1h38.6l-.5 7.1h-15.2zm-6.5-1.4h5v-50.4h15.3l.3-4.2h-35.6v4.2h15z"/><path d="m508 689.7-4.1 4.3c-2.5-2-3.9-4.2-4.4-6.5-3.1 4.1-7.4 6.2-12.9 6.2-7.8 0-11.8-4-11.8-11.9v-29.9l6.3-1.2v29.3c0 5.5 2.5 8.3 7.4 8.3 2.1 0 4.2-.7 6.1-2.2 1.8-1.4 3.2-3.1 4.2-5.2v-28.9l6.3-1.1v28.9c0 3.8.3 6.3 1 7.6.5.7 1.1 1.5 1.9 2.3z"/><path d="m504 695-.5-.4c-2.1-1.7-3.5-3.6-4.3-5.6-3.2 3.6-7.4 5.4-12.6 5.4-8.3 0-12.5-4.2-12.5-12.6v-30.5l7.7-1.5v30.1c0 5.1 2.1 7.5 6.7 7.5 2 0 3.9-.7 5.7-2.1 1.7-1.3 3-2.9 4-4.8v-29.3l7.7-1.3v29.7c0 3.6.3 6.1.9 7.3.3.7.9 1.4 1.6 2.1l.5.5zm-4.1-9.2.3 1.5c.4 2 1.6 3.9 3.7 5.7l3.2-3.3c-.6-.7-1.1-1.3-1.4-2-.7-1.4-1.1-4-1.1-7.9v-28.1l-4.9.8-.1 28.6c-1.1 2.2-2.6 4-4.5 5.4-2.1 1.6-4.3 2.4-6.6 2.4-5.3 0-8.1-3.1-8.1-9v-28.4l-4.9 1v29.3c0 7.5 3.6 11.1 11.1 11.1 5.3 0 9.4-1.9 12.4-5.9z"/><path d="m535.3 650.9-2.6 6.8c-.7-.1-1.3-.2-1.8-.2-1.6 0-3.3.5-4.9 1.4-1.6 1-2.8 2.1-3.6 3.5-.5.9-.7 2.4-.7 4.4v25.4h-6.4v-31.1c0-3.8-.5-6.8-1.5-9l6.4-1.7c.9 2 1.4 4 1.4 6.1v.6c3.2-4.4 7-6.6 11.4-6.6.8 0 1.5.1 2.3.4z"/><path d="m522.5 693h-7.8v-31.8c0-3.6-.5-6.6-1.4-8.7l-.3-.8 7.8-2.1.2.5c.8 1.7 1.2 3.3 1.4 5 3.1-3.6 6.7-5.4 10.7-5.4.7 0 1.5.1 2.4.4l.7.2-3.1 8-.6-.1c-.7-.1-1.2-.2-1.7-.2-1.5 0-3 .4-4.5 1.3s-2.6 2-3.3 3.3c-.4.8-.7 2.2-.7 4.1v26.3zm-6.4-1.4h5v-24.7c0-2.1.3-3.7.8-4.7.8-1.5 2.1-2.8 3.8-3.8s3.5-1.5 5.2-1.5c.4 0 .8 0 1.3.1l2.1-5.5c-.5-.1-.9-.2-1.3-.2-4.1 0-7.8 2.1-10.8 6.3l-1.3 1.8v-2.8c0-1.7-.4-3.5-1.1-5.2l-5.1 1.4c.8 2.2 1.2 5.1 1.2 8.5v30.3z"/><path d="m546.2 639c0 1.4-.5 2.6-1.4 3.6-1 1-2.1 1.4-3.6 1.4-1.4 0-2.5-.5-3.5-1.4s-1.5-2.1-1.5-3.5.5-2.6 1.4-3.6c1-1 2.1-1.5 3.6-1.5 1.4 0 2.6.5 3.6 1.4.9 1 1.4 2.2 1.4 3.6zm-1.6 53.3h-6.8v-40.5l6.8-1.1z"/><path d="m545.3 693h-8.2v-41.9l8.2-1.3zm-6.8-1.4h5.4v-40.1l-5.4.8zm2.7-46.9c-1.6 0-2.9-.5-4-1.6s-1.7-2.4-1.7-4 .5-3 1.6-4.1 2.5-1.7 4.1-1.7 3 .6 4.1 1.6c1.1 1.1 1.6 2.4 1.6 4.1s-.5 3-1.6 4.1c-1.1 1-2.5 1.6-4.1 1.6zm0-10c-1.2 0-2.2.4-3 1.3s-1.2 1.9-1.2 3.1.4 2.1 1.3 3c.9.8 1.8 1.2 3 1.2s2.2-.4 3.1-1.2c.8-.8 1.2-1.8 1.2-3.1s-.4-2.2-1.2-3.1c-1-.8-2-1.2-3.2-1.2z"/><path d="m580.8 680.1c0 4.2-1.6 7.5-4.7 10-2.8 2.2-6.3 3.4-10.7 3.4-5.5 0-10.5-1.4-15-4.1l2.5-4.7c4.2 2.6 8.5 3.8 12.9 3.8 2.4 0 4.4-.6 5.9-1.8 1.6-1.2 2.3-2.9 2.3-5.2 0-3.4-2.2-5.7-6.7-6.7l-5.1-1.2c-6.9-1.5-10.3-5.2-10.3-11.1 0-3.9 1.5-7 4.4-9.3 2.7-2.1 6.1-3.2 10.1-3.2 4.5 0 8.6 1.1 12.4 3.3l-2.4 4.7c-4.1-2-7.5-2.9-10.2-2.9-2.2 0-4 .5-5.4 1.6-1.5 1.3-2.3 2.9-2.3 5.1 0 3.1 2 5.1 5.9 5.9l5.4 1.1c7.3 1.5 11 5.3 11 11.3z"/><path d="m565.4 694.1c-5.6 0-10.8-1.4-15.3-4.2l-.6-.3 3.1-6 .7.4c4.1 2.5 8.3 3.7 12.5 3.7 2.2 0 4.1-.6 5.5-1.6 1.4-1.1 2.1-2.6 2.1-4.7 0-3.1-2-5-6.2-6l-5.1-1.2c-7.2-1.6-10.9-5.6-10.9-11.8 0-4.1 1.6-7.4 4.7-9.9 2.8-2.2 6.4-3.3 10.5-3.3 4.6 0 8.9 1.1 12.8 3.4l.6.3-3 6-.6-.3c-4-1.9-7.3-2.9-9.9-2.9-2 0-3.7.5-5 1.5-1.4 1.1-2 2.6-2 4.5 0 2.8 1.7 4.4 5.3 5.2l5.4 1.1c7.6 1.6 11.4 5.7 11.4 12.1 0 4.4-1.7 7.9-4.9 10.5-2.8 2.4-6.6 3.5-11.1 3.5zm-14-5c4.2 2.4 8.9 3.6 14 3.6 4.2 0 7.6-1.1 10.3-3.2 3-2.3 4.4-5.4 4.4-9.4 0-5.7-3.4-9.2-10.3-10.7l-5.4-1.1c-4.3-.9-6.4-3.1-6.4-6.6 0-2.3.9-4.2 2.6-5.6 3.3-2.6 8.4-2.4 15.7.9l1.8-3.5c-3.5-1.9-7.4-2.9-11.5-2.9-3.8 0-7 1-9.6 3-2.8 2.2-4.1 5.1-4.1 8.8 0 5.6 3.2 9 9.7 10.4l5.1 1.2c4.8 1.1 7.3 3.6 7.3 7.4 0 2.5-.9 4.5-2.6 5.8s-3.8 1.9-6.4 1.9c-4.3 0-8.5-1.2-12.6-3.6z"/><path d="m638.8 692.3h-6.5v-30c0-4-1.7-6-5.2-6-2 0-4 .7-5.8 2.2-.8.6-2.2 1.7-4.3 3.4l-.7.7v29.7h-6.5v-28.9c0-2.2-.3-3.9-1-4.9-.8-1.3-2.2-2-4.3-2-2.9 0-6.4 1.8-10.4 5.4v30.3h-6.1v-30.2c0-4.1-.5-7.4-1.5-9.9l6.1-1.5c1 2 1.5 3.9 1.5 5.7v.3c3.9-4 7.9-6.1 11.9-6.1 4.6 0 7.8 2.2 9.5 6.7 4.3-4.5 8.6-6.7 13.1-6.7 3.1 0 5.6 1 7.5 3.1s2.8 4.7 2.8 7.9v30.8z"/><path d="m639.5 693h-8v-30.7c0-3.6-1.4-5.2-4.5-5.2-1.8 0-3.7.7-5.4 2-.8.6-2.2 1.7-4.2 3.4l-.5.4v30.1h-7.9v-29.6c0-2.1-.3-3.6-.9-4.5-.6-1.1-1.9-1.6-3.7-1.6-2.7 0-5.9 1.7-9.7 5v30.7h-7.5v-31c0-4-.5-7.2-1.4-9.6l-.3-.8 7.5-1.8.3.5c.8 1.6 1.3 3.2 1.5 4.8 3.7-3.4 7.5-5.1 11.2-5.1 4.6 0 7.9 2.1 9.7 6.2 4.1-4.1 8.5-6.2 12.9-6.2 3.3 0 6 1.1 8 3.4 2 2.2 3 5 3 8.3v31.3zm-6.5-1.4h5.1v-30c0-3-.9-5.5-2.6-7.4-1.7-2-4-2.9-6.9-2.9-4.3 0-8.5 2.2-12.6 6.5l-.8.8-.4-1.1c-1.6-4.2-4.5-6.2-8.8-6.2-3.8 0-7.6 2-11.4 5.8l-1.2 1.3v-2.1c0-1.6-.4-3.2-1.1-4.9l-4.8 1.2c.8 2.5 1.2 5.6 1.2 9.4v29.6h4.7v-29.9l.2-.2c4.2-3.7 7.7-5.6 10.9-5.6 2.4 0 4 .8 4.9 2.3.7 1.1 1.1 2.9 1.1 5.3v28.2h5v-29.3l1-.9c2.1-1.7 3.5-2.9 4.3-3.5 2-1.6 4.1-2.3 6.2-2.3 2.7 0 5.9 1.2 5.9 6.7v29.2z"/><path d="m681.7 672.9c0 7.5-2.1 13.1-6.4 16.8-3 2.6-6.7 3.9-11.1 3.9-5.9 0-10.4-2.2-13.5-6.6-2.7-3.9-4.1-8.9-4.1-15 0-6 1.3-11 4-14.8 3.1-4.4 7.5-6.5 13.3-6.5 6.1 0 10.7 2.3 13.8 6.9 2.7 3.8 4 8.9 4 15.3zm-7.3.5c0-5.1-.5-9-1.6-11.5-1.6-4-4.6-6-9-6-4.1 0-6.9 1.6-8.5 4.8-1.2 2.3-1.8 5.7-1.8 10.2 0 5.2.5 9 1.6 11.6 1.7 3.9 4.7 5.8 9.2 5.8 6.8.1 10.1-4.9 10.1-14.9z"/><path d="m664.2 694.4c-6.1 0-10.8-2.3-14.1-6.9-2.8-4-4.2-9.2-4.2-15.5 0-6.2 1.4-11.3 4.1-15.2 3.2-4.5 7.9-6.8 13.9-6.8 6.3 0 11.2 2.4 14.4 7.2 2.7 4 4 9.3 4 15.8 0 7.7-2.2 13.5-6.6 17.4-3 2.6-6.9 4-11.5 4zm-.2-43c-5.6 0-9.8 2-12.7 6.2-2.6 3.7-3.9 8.5-3.9 14.4 0 6 1.3 10.9 4 14.6 3 4.3 7.2 6.3 12.9 6.3 4.2 0 7.8-1.3 10.7-3.7 4.1-3.5 6.1-9 6.1-16.3 0-6.2-1.3-11.2-3.8-15-3.1-4.4-7.4-6.5-13.3-6.5zm.4 37.7c-4.7 0-8-2.1-9.8-6.2-1.1-2.7-1.7-6.6-1.7-11.9 0-4.6.6-8.2 1.9-10.6 1.7-3.4 4.8-5.2 9.1-5.2 4.7 0 7.9 2.2 9.6 6.4 1.1 2.6 1.6 6.6 1.6 11.8.1 10.4-3.6 15.7-10.7 15.7zm-.5-32.5c-3.8 0-6.4 1.4-7.9 4.4-1.2 2.2-1.7 5.5-1.7 9.9 0 5.1.5 8.9 1.6 11.3 1.6 3.6 4.4 5.4 8.5 5.4 6.3 0 9.3-4.7 9.3-14.2 0-5-.5-8.8-1.5-11.3-1.5-3.7-4.2-5.5-8.3-5.5z"/><path d="m743.4 651.7-14 42.1c-1.4 4.2-2.9 7.4-4.6 9.6-2.2 3-5.1 4.9-8.6 5.7l-1.9-4.3c4.4-.8 7.5-5 9.4-12.5l-2.6.4c-.8-4.1-2.1-9-4.1-14.6l-8.7-25.5 6.3-2.1 8.3 26.4c.8 2.4 1.6 5.8 2.5 10.1h.2l2.6-8.6 8-26.7z"/><path d="m715.9 709.9-2.5-5.7.9-.2c3.9-.7 6.8-4.4 8.6-10.9l-2.2.3-.1-.7c-.8-4-2.1-8.9-4.1-14.5l-9-26.2 7.7-2.6 8.5 27.1c.6 2 1.3 4.6 2 7.8l10-33.4h8.7l-14.3 43c-1.4 4.2-3 7.5-4.7 9.8-2.3 3.1-5.3 5.1-9 6zm-.5-4.7 1.3 3c3.1-.8 5.6-2.6 7.6-5.3 1.6-2.1 3.2-5.3 4.5-9.4l13.7-41.2h-5.7l-10.6 35.2h-1.1l-.3-.6c-.9-4.3-1.7-7.7-2.5-10.1l-8.1-25.7-5 1.7 8.5 24.8c1.9 5.4 3.2 10.1 4 14.1l3-.5-.3 1c-1.7 7.5-4.8 11.8-9 13z"/><path d="m811.2 664.6c0 9.1-2.1 16-6.4 20.8-2.5 2.8-5.2 4.7-7.9 5.7-2.3.8-5.5 1.2-9.7 1.2h-14.6v-55.6h11.2c4.7 0 8.1.2 10.1.7 2.6.5 5.2 1.8 7.9 3.7 6.2 4.5 9.4 12.3 9.4 23.5zm-7.3.8c0-12.6-3.6-20-10.8-22.4-1.6-.5-4-.8-7.2-.8h-6.7v44.6h6c2.9 0 5.2-.1 6.9-.4 3.6-.6 6.3-2.4 8.1-5.4 2.5-4.2 3.7-9.3 3.7-15.6z"/><path d="m787.2 693h-15.3v-57h11.9c4.8 0 8.2.2 10.3.7 2.6.6 5.4 1.8 8.1 3.8 6.5 4.6 9.8 12.8 9.8 24.1 0 9.2-2.2 16.4-6.6 21.2-2.6 2.9-5.3 4.9-8.2 5.9-2.4.9-5.8 1.3-10 1.3zm-14-1.4h13.9c4.1 0 7.3-.4 9.5-1.2 2.7-.9 5.2-2.8 7.6-5.5 4.1-4.6 6.2-11.4 6.2-20.3 0-10.9-3.1-18.6-9.2-23-2.6-1.8-5.1-3-7.6-3.6-2-.4-5.3-.6-10-.6h-10.5v54.2zm12-4.1h-6.7v-46h7.4c3.3 0 5.7.3 7.4.9 7.5 2.5 11.3 10.3 11.3 23.1 0 6.3-1.3 11.7-3.9 15.9-1.9 3.2-4.8 5.1-8.6 5.7-1.6.3-4 .4-6.9.4zm-5.3-1.4h5.3c2.9 0 5.1-.1 6.7-.4 3.4-.6 5.9-2.2 7.6-5.1 2.4-4 3.7-9.1 3.7-15.2 0-12.2-3.5-19.5-10.3-21.8-1.6-.5-3.9-.8-7-.8h-6z"/><path d="m849.6 672.9h-25.4v1c0 4.1.6 7 1.9 9 2.2 3.3 5.6 5 10.1 5 3.9 0 7.2-1.3 10-3.8l2.5 4.1c-3.7 3.4-8.3 5.1-13.7 5.1-6 0-10.7-2.1-13.8-6.5-2.8-3.9-4.3-8.9-4.3-15.2 0-5.7 1.4-10.5 4.2-14.5 3.2-4.4 7.5-6.6 12.9-6.6 4.5 0 8.2 1.5 11 4.5 2 2.1 3.4 4.8 4 8 .4 2.1.7 5.1.7 9.1v.8zm-6.8-4.7c0-3.9-.6-6.8-1.7-8.7-1.5-2.6-4-3.9-7.5-3.9-5.9 0-9.1 4.2-9.4 12.7h18.6z"/><path d="m834.9 693.9c-6.3 0-11.1-2.3-14.4-6.7-2.9-4-4.4-9.2-4.4-15.6 0-5.8 1.4-10.9 4.3-14.9 3.3-4.6 7.8-6.9 13.5-6.9 4.7 0 8.6 1.6 11.5 4.7 2.1 2.2 3.5 5 4.2 8.3.4 2.1.7 5.2.7 9.3v1.6h-25.4v.3c0 3.9.6 6.8 1.8 8.6 2.1 3.2 5.2 4.7 9.5 4.7 3.7 0 6.9-1.2 9.5-3.7l.6-.6 3.2 5.3-.4.4c-3.8 3.4-8.6 5.2-14.2 5.2zm-1-42.8c-5.3 0-9.3 2.1-12.3 6.3-2.7 3.8-4 8.5-4 14.1 0 6.1 1.4 11.1 4.1 14.8 3 4.2 7.4 6.2 13.2 6.2 5 0 9.3-1.5 12.8-4.5l-1.7-2.9c-2.8 2.3-6.1 3.5-9.8 3.5-4.8 0-8.4-1.8-10.7-5.3-1.3-2-2-5.1-2-9.3v-1.7h25.4v-.3c0-3.9-.2-7-.6-9-.6-3.1-1.9-5.6-3.8-7.6-2.8-2.9-6.2-4.3-10.6-4.3zm9.6 17.8h-20.1v-.7c.3-8.9 3.7-13.4 10.1-13.4 3.8 0 6.5 1.4 8.1 4.3 1.1 2.1 1.8 5.1 1.8 9.1zm-18.6-1.4h17.2c-.1-3.4-.6-6-1.6-7.7-1.3-2.4-3.6-3.6-6.9-3.6-5.4 0-8.2 3.7-8.7 11.3z"/><path d="m890.6 671.9c0 5.8-1.1 10.5-3.3 14-3.1 4.9-7.2 7.4-12.6 7.4-4.4 0-8.1-1.6-11.2-4.7v19.4l-6.4 1.2v-47.8c0-4.6-.3-7.8-1-9.8l6.6-1.1c.3 1.4.4 3.1.4 5.2v1.1c3.4-3.9 7.4-5.9 12-5.9 5.4 0 9.4 2.3 12.1 6.8 2.3 3.7 3.4 8.4 3.4 14.2zm-6.8.8c0-4.6-.5-8.1-1.4-10.5-1.5-3.7-4.1-5.6-8-5.6-4.1 0-7.7 1.9-10.9 5.7v20.5c3.1 3.5 6.4 5.3 10 5.3 6.8-.1 10.3-5.2 10.3-15.4z"/><path d="m856.4 710.1v-48.7c0-4.5-.3-7.7-.9-9.6l-.3-.8 8.1-1.4.1.7c.2 1.3.4 2.8.4 4.6 3.2-3.2 7-4.8 11.3-4.8 5.6 0 9.9 2.4 12.7 7.2 2.2 3.8 3.4 8.7 3.4 14.6s-1.1 10.8-3.4 14.4c-3.2 5.1-7.6 7.8-13.2 7.8-4 0-7.5-1.3-10.5-3.8v18.4zm.6-57.9c.5 2.1.8 5.1.8 9.2v47l5-1v-20.6l1.2 1.3c2.9 3 6.5 4.5 10.7 4.5 5.1 0 9-2.3 12-7.1 2.1-3.4 3.2-8 3.2-13.7 0-5.6-1.1-10.3-3.2-13.8-2.6-4.4-6.3-6.5-11.5-6.5-4.4 0-8.3 1.9-11.5 5.6l-1.2 1.5v-3c0-1.7-.1-3.1-.3-4.3zm16.5 36.5c-3.7 0-7.3-1.9-10.5-5.5l-.2-.2v-21l.2-.2c3.3-4 7.1-6 11.4-6 4.2 0 7.1 2 8.7 6.1 1 2.5 1.4 6 1.4 10.8 0 10.6-3.7 16-11 16zm-9.3-6.2c2.9 3.2 6 4.9 9.3 4.9 6.4 0 9.6-4.8 9.6-14.6 0-4.5-.5-8-1.3-10.3-1.4-3.5-3.8-5.2-7.4-5.2-3.8 0-7.2 1.8-10.2 5.3z"/><path d="m932.1 672.9c0 7.5-2.1 13.1-6.4 16.8-3 2.6-6.7 3.9-11.1 3.9-5.9 0-10.4-2.2-13.5-6.6-2.7-3.9-4.1-8.9-4.1-15 0-6 1.3-11 4-14.8 3.1-4.4 7.5-6.5 13.3-6.5 6.1 0 10.7 2.3 13.8 6.9 2.7 3.8 4 8.9 4 15.3zm-7.3.5c0-5.1-.5-9-1.6-11.5-1.6-4-4.6-6-9-6-4.1 0-6.9 1.6-8.5 4.8-1.2 2.3-1.8 5.7-1.8 10.2 0 5.2.5 9 1.6 11.6 1.7 3.9 4.7 5.8 9.2 5.8 6.7.1 10.1-4.9 10.1-14.9z"/><path d="m914.6 694.4c-6.1 0-10.8-2.3-14.1-6.9-2.8-4-4.2-9.2-4.2-15.5 0-6.2 1.4-11.3 4.1-15.2 3.2-4.5 7.9-6.8 13.9-6.8 6.3 0 11.2 2.4 14.4 7.2 2.7 4 4 9.3 4 15.8 0 7.7-2.2 13.5-6.6 17.4-3 2.6-6.9 4-11.5 4zm-.3-43c-5.6 0-9.8 2-12.7 6.2-2.6 3.7-3.9 8.5-3.9 14.4 0 6 1.3 10.9 4 14.6 3 4.3 7.2 6.3 12.9 6.3 4.2 0 7.8-1.3 10.7-3.7 4.1-3.5 6.1-9 6.1-16.3 0-6.2-1.3-11.2-3.8-15-3-4.4-7.4-6.5-13.3-6.5zm.4 37.7c-4.7 0-8-2.1-9.8-6.2-1.1-2.7-1.7-6.6-1.7-11.9 0-4.6.6-8.2 1.9-10.6 1.7-3.4 4.8-5.2 9.1-5.2 4.7 0 7.9 2.2 9.6 6.4 1.1 2.6 1.6 6.6 1.6 11.8.1 10.4-3.5 15.7-10.7 15.7zm-.4-32.5c-3.8 0-6.4 1.4-7.9 4.4-1.2 2.2-1.7 5.5-1.7 9.9 0 5.1.5 8.9 1.6 11.3 1.6 3.6 4.4 5.4 8.5 5.4 6.3 0 9.3-4.7 9.3-14.2 0-5-.5-8.8-1.5-11.3-1.5-3.7-4.3-5.5-8.3-5.5z"/><path d="m960.6 650.9-2.6 6.8c-.7-.1-1.3-.2-1.8-.2-1.6 0-3.3.5-4.9 1.4-1.6 1-2.8 2.1-3.6 3.5-.5.9-.7 2.4-.7 4.4v25.4h-6.4v-31.1c0-3.8-.5-6.8-1.5-9l6.4-1.7c.9 2 1.4 4 1.4 6.1v.6c3.2-4.4 7-6.6 11.4-6.6.8 0 1.5.1 2.3.4z"/><path d="m947.7 693h-7.8v-31.8c0-3.6-.5-6.6-1.4-8.7l-.3-.8 7.8-2.1.2.5c.8 1.7 1.2 3.3 1.4 5 3.1-3.6 6.7-5.4 10.7-5.4.7 0 1.5.1 2.4.4l.7.2-3.1 8-.6-.1c-.7-.1-1.2-.2-1.7-.2-1.5 0-3 .4-4.5 1.3s-2.6 2-3.3 3.3c-.4.8-.7 2.2-.7 4.1v26.3zm-6.3-1.4h5v-24.7c0-2.1.3-3.7.8-4.7.8-1.5 2.1-2.8 3.8-3.8s3.5-1.5 5.2-1.5c.4 0 .8 0 1.3.1l2.1-5.5c-.5-.1-.9-.2-1.3-.2-4.1 0-7.8 2.1-10.8 6.3l-1.3 1.8v-2.8c0-1.7-.4-3.5-1.1-5.2l-5.1 1.4c.8 2.2 1.2 5.1 1.2 8.5v30.3z"/><path d="m980.6 651.5-2 5h-8.6v26.2c0 2.1.3 3.6 1 4.5.8 1 2.2 1.6 4.3 1.6 1.6 0 3-.3 4.1-.8l.9 4.1c-2.1 1.1-4.5 1.6-7.2 1.6-6.2 0-9.2-3.1-9.2-9.2v-27.9h-5.3v-5h5.3v-.6c0-.7.2-3.5.6-8.5l.1-1.1 6.6-1.5c-.5 4.4-.8 8.2-.8 11.5h10.2z"/><path d="m973.1 694.3c-6.5 0-9.9-3.4-9.9-9.9v-27.2h-5.3v-6.4h5.3c0-1 .2-3.6.6-8.3l.1-1.6 8.1-1.8-.1 1c-.5 4-.8 7.6-.8 10.7h10.6l-2.5 6.4h-8.4v25.4c0 2 .3 3.3.8 4.1.6.8 1.9 1.3 3.7 1.3 1.5 0 2.8-.2 3.8-.7l.8-.4 1.2 5.5-.5.2c-2.1 1.1-4.7 1.7-7.5 1.7zm-13.8-38.5h5.3v28.6c0 5.7 2.8 8.5 8.5 8.5 2.4 0 4.5-.4 6.4-1.3l-.6-2.7c-1 .4-2.2.5-3.6.5-2.3 0-3.9-.6-4.9-1.8-.8-1-1.1-2.6-1.1-4.9v-26.9h8.9l1.4-3.6h-10v-.7c0-3.1.2-6.7.7-10.6l-5.1 1.1v.5c-.4 5-.6 7.8-.6 8.4v1.2h-5.3z"/><path d="m1016 672.9h-25.4v1c0 4.1.6 7 1.9 9 2.2 3.3 5.6 5 10.1 5 3.9 0 7.2-1.3 10-3.8l2.5 4.1c-3.7 3.4-8.3 5.1-13.7 5.1-6 0-10.7-2.1-13.8-6.5-2.8-3.9-4.3-8.9-4.3-15.2 0-5.7 1.4-10.5 4.2-14.5 3.2-4.4 7.5-6.6 12.9-6.6 4.5 0 8.2 1.5 11 4.5 2 2.1 3.4 4.8 4 8 .4 2.1.7 5.1.7 9.1v.8zm-6.8-4.7c0-3.9-.6-6.8-1.7-8.7-1.5-2.6-4-3.9-7.5-3.9-5.9 0-9.1 4.2-9.4 12.7h18.6z"/><path d="m1001.3 693.9c-6.3 0-11.1-2.3-14.4-6.7-2.9-4-4.4-9.2-4.4-15.6 0-5.8 1.4-10.9 4.3-14.9 3.3-4.6 7.8-6.9 13.5-6.9 4.7 0 8.6 1.6 11.5 4.7 2.1 2.2 3.5 5 4.2 8.3.4 2.1.7 5.2.7 9.3v1.6h-25.4v.3c0 3.9.6 6.8 1.8 8.6 2.1 3.2 5.2 4.7 9.5 4.7 3.7 0 6.9-1.2 9.5-3.7l.6-.6 3.2 5.3-.4.4c-3.8 3.4-8.6 5.2-14.2 5.2zm-1-42.8c-5.3 0-9.3 2.1-12.3 6.3-2.7 3.8-4 8.5-4 14.1 0 6.1 1.4 11.1 4.1 14.8 3 4.2 7.4 6.2 13.2 6.2 5 0 9.3-1.5 12.8-4.5l-1.7-2.9c-2.8 2.3-6.1 3.5-9.8 3.5-4.8 0-8.4-1.8-10.7-5.3-1.3-2-2-5.1-2-9.3v-1.7h25.4v-.3c0-3.9-.2-7-.6-9-.6-3.1-1.9-5.6-3.8-7.6-2.8-2.9-6.2-4.3-10.6-4.3zm9.6 17.8h-20.1v-.7c.3-8.9 3.7-13.4 10.1-13.4 3.8 0 6.5 1.4 8.1 4.3 1.1 2.1 1.8 5.1 1.8 9.1zm-18.6-1.4h17.2c-.1-3.4-.6-6-1.6-7.7-1.3-2.4-3.6-3.6-6.9-3.6-5.4 0-8.2 3.7-8.7 11.3z"/></g></svg>